<svg xmlns="http://www.w3.org/2000/svg" xmlns:xlink="http://www.w3.org/1999/xlink" id="레이어_1" style="width: 200px; height: 200px; transform-origin: 50% 50%; transform: scaleX(1) scaleY(1) rotate(0deg);" version="1.1" viewBox="0 0 100 100" xml:space="preserve" preserveAspectRatio="xMidYMid meet"><path d="M44.5,58H19.8c-1,0.1-1.8,1-1.8,2c0.1,0.9,0.8,1.7,1.8,1.7h24.6c3.6,0.2,6.4,2.7,6.4,4.8c0,2.6-0.7,5.1-5.7,5.6  c-1,0-1.8,0.9-1.8,2c0,1,0.9,1.8,2,1.8h0.2c4.2-0.4,9.2-2.3,9.2-9.3C54.5,62.3,49.9,58.5,44.5,58z" fill="#FFE900" style="fill:#FFE900;stroke:none" stroke="none"/><path d="M50,34.1c-2.2,0.2-2.4,3.7,0,3.7c7.6-0.4,7.1,10.1-0.9,10.4c0,0-29.3,0-29.3,0c-2.2,0.2-2.4,3.7,0,3.7c0,0,29.7,0,29.7,0  C62.5,51.5,62.6,33.5,50,34.1z" fill="#FFE900" style="fill:#FFE900;stroke:none" stroke="none"/><path d="M19.8,41.8h14.4c5.3-0.3,9.7-4.1,10-8.5c0.1-2.4-0.7-4.7-2.4-6.4C40.5,25.5,38.2,24,34,24c-1,0.1-1.8,1-1.8,2  c0.1,0.9,0.8,1.7,1.8,1.7l0,0c1.8-0.2,3.7,0.4,5,1.6c0.9,1,1.4,2.3,1.3,3.6c-0.1,2.1-2.7,4.7-6.4,4.9H19.8c-1,0.1-1.8,1-1.8,2  C18.1,41,18.8,41.6,19.8,41.8L19.8,41.8z" fill="#FFE900" style="fill:#FFE900;stroke:none" stroke="none"/><path d="M80.2,32.8h-1.7v-1.7c0-1-0.8-1.9-1.9-1.9s-1.9,0.8-1.9,1.9l0,0v1.7H73c-1,0.1-1.8,1-1.8,2c0.1,0.9,0.8,1.7,1.8,1.7h1.7v1.7  c0,1,0.8,1.9,1.9,1.9s1.9-0.8,1.9-1.9v-1.7h1.7c1-0.1,1.8-1,1.8-2C81.9,33.6,81.2,33,80.2,32.8z" fill="#FFE900" style="fill:#FFE900;stroke:none" stroke="none"/><path d="M69.1,53.8v-1.7h1.7c1-0.1,1.8-1,1.8-2c-0.1-0.9-0.8-1.7-1.8-1.7h-1.7v-1.7c-0.1-1-1-1.8-2-1.7c-0.9,0.1-1.7,0.8-1.8,1.7  v1.7h-1.7c-1,0.1-1.8,1-1.8,2c0.1,0.9,0.8,1.7,1.8,1.7h1.7v1.7c-0.1,1,0.7,1.9,1.8,2c1,0.1,2-0.7,2-1.7C69.1,54,69.1,54,69.1,53.8  L69.1,53.8z" fill="#FFE900" style="fill:#FFE900;stroke:none" stroke="none"/><path d="M77.6,64.4h-1.7v-1.7c0-1-0.8-1.9-1.9-1.9c-1,0-1.9,0.8-1.9,1.9l0,0v1.7h-1.7c-1,0.1-1.8,1-1.8,2c0.1,0.9,0.8,1.7,1.8,1.7  h1.7v1.7c0,1,0.8,1.9,1.9,1.9c1,0,1.9-0.8,1.9-1.9v-1.7h1.7c1-0.1,1.8-1,1.8-2C79.3,65.2,78.5,64.4,77.6,64.4z" fill="#FFE900" style="fill:#FFE900;stroke:none" stroke="none"/></svg>