<svg width="82" height="82" viewBox="0 0 82 82" fill="none" xmlns="http://www.w3.org/2000/svg">
<path d="M0.18396 16.9858C0.709563 15.6718 2.20086 15.0327 3.51487 15.5583L12.5206 19.1606C14.3534 19.8937 16.398 19.8937 18.2307 19.1606L23.4297 17.081C26.4844 15.8591 29.892 15.8591 32.9466 17.081L38.1456 19.1606C39.9784 19.8937 42.023 19.8937 43.8557 19.1606L49.0547 17.081C52.1094 15.8591 55.517 15.8591 58.5716 17.081L63.7706 19.1606C65.6034 19.8937 67.648 19.8937 69.4807 19.1606L78.4865 15.5583C79.8005 15.0327 81.2918 15.6718 81.8174 16.9858C82.343 18.2998 81.7039 19.7911 80.3899 20.3167L71.3841 23.919C68.3295 25.1409 64.9219 25.1409 61.8672 23.919L56.6682 21.8394C54.8355 21.1063 52.7909 21.1063 50.9581 21.8394L45.7591 23.919C42.7045 25.1409 39.2969 25.1409 36.2422 23.919L31.0432 21.8394C29.2105 21.1063 27.1659 21.1063 25.3331 21.8394L20.1341 23.919C17.0795 25.1409 13.6719 25.1409 10.6172 23.919L1.61149 20.3167C0.297485 19.7911 -0.341643 18.2998 0.18396 16.9858ZM0.18396 32.3608C0.709563 31.0468 2.20086 30.4077 3.51487 30.9333L12.5206 34.5356C14.3534 35.2687 16.398 35.2687 18.2307 34.5356L23.4297 32.456C26.4844 31.2341 29.892 31.2341 32.9466 32.456L38.1456 34.5356C39.9784 35.2687 42.023 35.2687 43.8557 34.5356L49.0547 32.456C52.1094 31.2341 55.517 31.2341 58.5716 32.456L63.7706 34.5356C65.6034 35.2687 67.648 35.2687 69.4807 34.5356L78.4865 30.9333C79.8005 30.4077 81.2918 31.0468 81.8174 32.3608C82.343 33.6748 81.7039 35.1661 80.3899 35.6917L71.3841 39.294C68.3295 40.5159 64.9219 40.5159 61.8672 39.294L56.6682 37.2144C54.8355 36.4813 52.7909 36.4813 50.9581 37.2144L45.7591 39.294C42.7045 40.5159 39.2969 40.5159 36.2422 39.294L31.0432 37.2144C29.2105 36.4813 27.1659 36.4813 25.3331 37.2144L20.1341 39.294C17.0795 40.5159 13.6719 40.5159 10.6172 39.294L1.61149 35.6917C0.297485 35.1661 -0.341643 33.6748 0.18396 32.3608ZM0.18396 47.7358C0.709563 46.4218 2.20086 45.7827 3.51487 46.3083L12.5206 49.9106C14.3534 50.6437 16.398 50.6437 18.2307 49.9106L23.4297 47.831C26.4844 46.6091 29.892 46.6091 32.9466 47.831L38.1456 49.9106C39.9784 50.6437 42.023 50.6437 43.8557 49.9106L49.0547 47.831C52.1094 46.6091 55.517 46.6091 58.5716 47.831L63.7706 49.9106C65.6034 50.6437 67.648 50.6437 69.4807 49.9106L78.4865 46.3083C79.8005 45.7827 81.2918 46.4218 81.8174 47.7358C82.343 49.0498 81.7039 50.5411 80.3899 51.0667L71.3841 54.669C68.3295 55.8909 64.9219 55.8909 61.8672 54.669L56.6682 52.5894C54.8355 51.8563 52.7909 51.8563 50.9581 52.5894L45.7591 54.669C42.7045 55.8909 39.2969 55.8909 36.2422 54.669L31.0432 52.5894C29.2105 51.8563 27.1659 51.8563 25.3331 52.5894L20.1341 54.669C17.0795 55.8909 13.6719 55.8909 10.6172 54.669L1.61149 51.0667C0.297485 50.5411 -0.341643 49.0498 0.18396 47.7358ZM0.18396 63.1108C0.709563 61.7968 2.20086 61.1577 3.51487 61.6833L12.5206 65.2856C14.3534 66.0187 16.398 66.0187 18.2307 65.2856L23.4297 63.206C26.4844 61.9841 29.892 61.9841 32.9466 63.206L38.1456 65.2856C39.9784 66.0187 42.023 66.0187 43.8557 65.2856L49.0547 63.206C52.1094 61.9841 55.517 61.9841 58.5716 63.206L63.7706 65.2856C65.6034 66.0187 67.648 66.0187 69.4807 65.2856L78.4865 61.6833C79.8005 61.1577 81.2918 61.7968 81.8174 63.1108C82.343 64.4248 81.7039 65.9161 80.3899 66.4417L71.3841 70.044C68.3295 71.2659 64.9219 71.2659 61.8672 70.044L56.6682 67.9644C54.8355 67.2313 52.7909 67.2313 50.9581 67.9644L45.7591 70.044C42.7045 71.2659 39.2969 71.2659 36.2422 70.044L31.0432 67.9644C29.2105 67.2313 27.1659 67.2313 25.3331 67.9644L20.1341 70.044C17.0795 71.2659 13.6719 71.2659 10.6172 70.044L1.61149 66.4417C0.297485 65.9161 -0.341643 64.4248 0.18396 63.1108Z" fill="white"/>
</svg>
