<svg width="82" height="82" viewBox="0 0 82 82" fill="none" xmlns="http://www.w3.org/2000/svg">
<path d="M64.0625 10.25C56.9863 10.25 51.25 15.9864 51.25 23.0625C51.25 24.4777 50.1027 25.625 48.6875 25.625C47.2723 25.625 46.125 24.4777 46.125 23.0625C46.125 13.1559 54.1559 5.125 64.0625 5.125C73.9691 5.125 82 13.1559 82 23.0625C82 32.9691 73.9691 41 64.0625 41H2.5625C1.14727 41 0 39.8527 0 38.4375C0 37.0223 1.14727 35.875 2.5625 35.875H64.0625C71.1386 35.875 76.875 30.1386 76.875 23.0625C76.875 15.9864 71.1386 10.25 64.0625 10.25ZM28.1875 15.375C25.357 15.375 23.0625 17.6695 23.0625 20.5C23.0625 21.9152 21.9152 23.0625 20.5 23.0625C19.0848 23.0625 17.9375 21.9152 17.9375 20.5C17.9375 14.8391 22.5266 10.25 28.1875 10.25C33.8484 10.25 38.4375 14.8391 38.4375 20.5C38.4375 26.1609 33.8484 30.75 28.1875 30.75H2.5625C1.14727 30.75 0 29.6027 0 28.1875C0 26.7723 1.14727 25.625 2.5625 25.625H28.1875C31.018 25.625 33.3125 23.3305 33.3125 20.5C33.3125 17.6695 31.018 15.375 28.1875 15.375ZM0 48.6875C0 47.2723 1.14727 46.125 2.5625 46.125H54.026C62.5174 46.125 69.401 53.0086 69.401 61.5C69.401 69.9914 62.5174 76.875 54.026 76.875C45.5347 76.875 38.651 69.9914 38.651 61.5C38.651 60.0848 39.7983 58.9375 41.2135 58.9375C42.6288 58.9375 43.776 60.0848 43.776 61.5C43.776 67.1609 48.3651 71.75 54.026 71.75C59.687 71.75 64.276 67.1609 64.276 61.5C64.276 55.8391 59.687 51.25 54.026 51.25H2.5625C1.14727 51.25 0 50.1027 0 48.6875Z" fill="white"/>
</svg>
